<svg height="40" viewBox="0 0 40 40" width="40" xmlns="http://www.w3.org/2000/svg">
    <g fill="#000" fill-rule="evenodd">
        <circle cx="20" cy="20" fill-opacity=".05098" r="20"/>
        <path d="m15.2083333 16.6666667c.8054153 0 1.4583334-.6529181 1.4583334-1.4583334 0-.8054152-.6529181-1.4583333-1.4583334-1.4583333-.8054152 0-1.4583333.6529181-1.4583333 1.4583333 0 .8054153.6529181 1.4583334 1.4583333 1.4583334zm0 9.5833333c.8054153 0 1.4583334-.6529181 1.4583334-1.4583333 0-.8054153-.6529181-1.4583334-1.4583334-1.4583334-.8054152 0-1.4583333.6529181-1.4583333 1.4583334 0 .8054152.6529181 1.4583333 1.4583333 1.4583333zm9.5833334 0c.8054152 0 1.4583333-.6529181 1.4583333-1.4583333 0-.8054153-.6529181-1.4583334-1.4583333-1.4583334-.8054153 0-1.4583334.6529181-1.4583334 1.4583334 0 .8054152.6529181 1.4583333 1.4583334 1.4583333zm0-9.5833333c.8054152 0 1.4583333-.6529181 1.4583333-1.4583334 0-.8054152-.6529181-1.4583333-1.4583333-1.4583333-.8054153 0-1.4583334.6529181-1.4583334 1.4583333 0 .8054153.6529181 1.4583334 1.4583334 1.4583334z"
              fill-opacity=".9"/>
    </g>
</svg>