<?xml version="1.0" encoding="UTF-8"?>
<svg width="24px" height="24px" viewBox="0 0 24 24" version="1.1" xmlns="http://www.w3.org/2000/svg"
     xmlns:xlink="http://www.w3.org/1999/xlink">
    <title>ic_home_off</title>
    <defs>
        <path d="M12.6529771,4.74242054 L12.6883705,4.77479678 L21.0000539,12.6988369 L21.0000539,19.3648386 C21.0000539,20.9625195 19.7511339,22.2684995 18.1763266,22.3597459 L18.0000539,22.3648386 L6.00005386,22.3648386 C4.34319961,22.3648386 3.00005386,21.0216929 3.00005386,19.3648386 L3.00005386,12.6988369 L11.3118496,4.77479678 C11.6890912,4.4169009 12.2776634,4.40820127 12.6529771,4.74242054 Z M9.39899189,2.46101989 C10.9454787,1.13547521 13.2594898,1.18118365 14.7530439,2.59814521 L22.4382626,9.88925013 L22.5182366,9.97439656 C22.8392803,10.3586016 22.8284305,10.9309305 22.4754659,11.3029743 C22.0953501,11.7036368 21.4624043,11.7202933 21.0617417,11.3401775 L13.376523,4.0490726 L13.2633993,3.9494676 C12.4906369,3.31863588 11.3584047,3.35183755 10.6234813,4.0490726 L2.9382626,11.3401775 L2.84902778,11.4155625 C2.44846918,11.7159546 1.87750309,11.675018 1.52453847,11.3029743 C1.14442273,10.9023117 1.1610792,10.2693659 1.56174174,9.88925013 L9.24696044,2.59814521 Z"
              id="path-1"></path>
    </defs>
    <g id="ic_home_off" stroke="none" stroke-width="1" fill="none" fill-rule="evenodd">
        <mask id="mask-2" fill="white">
            <use xlink:href="#path-1"></use>
        </mask>
        <use id="形状结合" fill="#98717F" fill-rule="nonzero" xlink:href="#path-1"></use>
        <path d="M12.0000539,13.6148386 C13.6569081,13.6148386 15.0000539,14.9579844 15.0000539,16.6148386 L15.0000539,20.3648386 L15.0000539,20.3648386 L9.00005386,20.3648386 L9.00005386,16.6148386 C9.00005386,14.9579844 10.3431996,13.6148386 12.0000539,13.6148386 Z"
              id="矩形" fill="#EAE2E5" fill-rule="nonzero"></path>
    </g>
</svg>