<?xml version="1.0" encoding="UTF-8"?>
<svg width="32px" height="32px" viewBox="0 0 32 32" version="1.1" xmlns="http://www.w3.org/2000/svg">
    <title>ic_life</title>
    <g id="ic_life" stroke="none" stroke-width="1" fill="none" fill-rule="evenodd" fill-opacity="0.9">
        <path d="M30.2907432,5.33333333 C30.885089,5.33333333 31.1006132,5.39521707 31.3178971,5.5114218 C31.5351811,5.62762653 31.7057068,5.79815225 31.8219115,6.0154362 C31.9381163,6.23272015 32,6.44824431 32,7.04259013 L32,23.6240765 C32,24.2184224 31.9381163,24.4339465 31.8219115,24.6512305 C31.7057068,24.8685144 31.5351811,25.0390401 31.3178971,25.1552449 C31.1006132,25.2714496 30.885089,25.3333333 30.2907432,25.3333333 L28.666,25.3333333 L28.6666667,25.7777778 C28.6666667,26.2686976 28.2686976,26.6666667 27.7777778,26.6666667 L4.22222222,26.6666667 C3.73130244,26.6666667 3.33333333,26.2686976 3.33333333,25.7777778 L3.333,25.3333333 L1.7092568,25.3333333 C1.11491097,25.3333333 0.899386815,25.2714496 0.682102864,25.1552449 C0.464818914,25.0390401 0.294293198,24.8685144 0.178088469,24.6512305 C0.0679997791,24.4453825 0.00666455163,24.241114 0.000513166711,23.714828 L0,7.04259013 C0,6.44824431 0.0618837408,6.23272015 0.178088469,6.0154362 C0.294293198,5.79815225 0.464818914,5.62762653 0.682102864,5.5114218 C0.887950818,5.40133311 1.09221935,5.33999788 1.61850534,5.3338465 L30.2907432,5.33333333 Z M30,7.33333333 L2,7.33333333 L2,23.3333333 L30,23.3333333 L30,7.33333333 Z"
              id="形状结合" fill="#000000"></path>
        <polygon id="矩形" fill="#000000" opacity="0.6"
                 points="3.33333333 8.72218601 28.6451142 8.66666667 28.6666667 22 3.33333333 21.9127368"></polygon>
    </g>
</svg>