<?xml version="1.0" encoding="UTF-8"?>
<svg width="24px" height="24px" viewBox="0 0 24 24" version="1.1" xmlns="http://www.w3.org/2000/svg">
    <title>ic_my_on</title>
    <g id="ic_my_on" stroke="none" stroke-width="1" fill="none" fill-rule="evenodd">
        <path d="M12.1733112,1.50140414 L12,1.5 C6.26566558,1.5 1.59424269,6.10067747 1.50140414,11.8266888 L1.50003281,11.9918989 C1.50003281,17.7343344 6.10067747,22.4057573 11.8266888,22.4985959 L11.9918989,22.4999672 C17.7343344,22.4999672 22.4057573,17.8993225 22.4985959,12.1733112 L22.4999672,12.0081011 C22.4999672,6.26566558 17.8993225,1.59424269 12.1733112,1.50140414 Z"
              id="形状结合" fill="#E92F4F"></path>
        <path d="M12,12.8900553 C15.019936,12.8900553 17.5478873,14.9964918 18.1947431,17.8202539 C16.6438445,19.470056 14.4422168,20.5 12.0000328,20.5 C9.55784881,20.5 7.35622111,19.470056 5.80581387,17.820832 C6.45211271,14.9964918 8.98006405,12.8900553 12,12.8900553 Z M12,6.30882353 C13.6568542,6.30882353 15,7.65196928 15,9.30882353 C15,10.9656778 13.6568542,12.3088235 12,12.3088235 C10.3431458,12.3088235 9,10.9656778 9,9.30882353 C9,7.65196928 10.3431458,6.30882353 12,6.30882353 Z"
              id="形状结合" fill-opacity="0.8" fill="#FFFFFF" fill-rule="nonzero"></path>
    </g>
</svg>