<?xml version="1.0" encoding="UTF-8"?>
<svg width="32px" height="32px" viewBox="0 0 32 32" version="1.1" xmlns="http://www.w3.org/2000/svg">
    <title>ic_play</title>
    <g id="ic_play" stroke="none" stroke-width="1" fill="none" fill-rule="evenodd" fill-opacity="0.9">
        <path d="M28.7172118,14.6719407 C28.7475287,14.6910976 28.7769097,14.711601 28.8057487,14.7336199 L28.8386598,14.7611465 L28.8588623,14.7794507 L28.9320681,14.8497519 L29.0199898,14.93828 L29.1677036,15.0915896 L29.4921612,15.435797 L29.6685796,15.6196199 C30.5279103,16.5233338 31,17.4545038 31,18.5724314 C31,20.6126535 29.3861662,22.3333333 27.3844755,22.3333333 C27.2066833,22.3333333 26.973295,22.3090314 26.7148676,22.2684885 L26.602669,22.2501421 L26.3972966,22.2130544 L26.1869266,22.1709194 L25.9745626,22.1245292 L25.8685713,22.0999861 L25.0085954,21.8326978 C24.1642094,21.570255 23.5407165,20.8530632 23.3982766,19.9803807 C23.2062513,18.8038959 23.4400637,17.7010487 24.0997138,16.6718393 C24.6327916,15.8401127 25.3214839,15.1113309 26.0551084,14.7336199 C26.415832,14.5462764 26.8910958,14.4001135 27.2984776,14.3432077 C27.8007349,14.2992927 28.2878363,14.4006234 28.7172118,14.6719407 Z M28.3635306,19.3228972 C27.9192347,20.1021003 27.8279497,20.9801691 28.3973523,21.2502554 C28.966755,21.5203416 29.5343934,21.1104823 29.9786893,20.3312792 C30.4229851,19.552076 30.4694037,18.7217446 30.00629,18.4285112 C29.5431764,18.1352778 28.8078264,18.543694 28.3635306,19.3228972 Z M21.3279606,9.33333333 C23.1651744,9.33333333 25.3249824,11.0651807 26.9200756,13.3232698 L27,13.4375193 L26.8638507,13.4622839 C26.4049474,13.5514995 25.9214294,13.7172878 25.5325579,13.9240144 C24.66734,14.3799719 23.861785,15.2116511 23.2166466,16.2419329 C22.432806,17.4937212 22.1490451,18.8636989 22.3787424,20.3041437 C22.3983744,20.4272563 22.4244684,20.548231 22.4566839,20.6666667 C20.8600612,20.5619959 19.6890098,20.1086023 18.862795,19.642909 C17.1403274,18.6720458 16.086954,17.0221562 16.0051442,15.0521458 L16.0012447,14.9259692 L16,14.8032766 L16.0009873,14.6969127 C16.0561926,11.7255331 18.4195245,9.33333333 21.3279606,9.33333333 Z M4.70152237,7.69615369 C5.1089042,7.75305945 5.584168,7.89922236 5.94489165,8.08656591 C6.67851608,8.46427686 7.3672084,9.19305867 7.90028615,10.0247853 C8.55993634,11.0539947 8.79374875,12.1568418 8.60172337,13.3333266 C8.45928351,14.2060092 7.83579059,14.923201 6.99140459,15.1856438 L6.13142871,15.4529321 L6.02543742,15.4774752 L5.81307336,15.5238653 L5.60270344,15.5660004 L5.39733096,15.6030881 C5.09452198,15.654538 4.81871556,15.6862793 4.61552452,15.6862793 C2.61383376,15.6862793 1,13.9655995 1,11.9253774 C1,10.8074498 1.47208968,9.87627974 2.33142037,8.9725659 L2.50783881,8.78874295 L2.83229639,8.44453553 L2.98001018,8.29122597 L3.06793186,8.20269791 L3.14113772,8.13239669 L3.19425135,8.08656591 C3.22309035,8.06454692 3.25247131,8.04404354 3.28278823,8.02488663 C3.71216367,7.75356939 4.19926509,7.6522387 4.70152237,7.69615369 Z M17.2071125,11.5965697 C16.4043646,12.7576115 16.5188955,14.1643768 17.3978991,14.7427847 C18.2769026,15.3211927 19.6568064,14.8978055 20.4595542,13.7367637 C21.262302,12.5757218 21.1477712,11.1689565 20.2687676,10.5905486 C19.389764,10.0121406 18.0098603,10.4355278 17.2071125,11.5965697 Z M1.99370996,11.7814572 C1.53059632,12.0746906 1.57701485,12.905022 2.02131073,13.6842251 C2.46560661,14.4634283 3.03324501,14.8732876 3.60264766,14.6032014 C4.1720503,14.3331151 4.08076531,13.4550463 3.63646943,12.6758431 C3.19217355,11.89664 2.45682359,11.4882238 1.99370996,11.7814572 Z M10.6501733,2.66666667 C13.5524798,2.66666667 15.9174645,4.97043739 16.0284689,7.85327081 L16.0315463,7.96030394 L16.0325437,8.06528083 L16.0312863,8.18637353 L16.027347,8.31090481 C15.9447017,10.2552259 14.8805711,11.8836006 13.1405135,12.8418036 C12.3058613,13.3014242 11.1228509,13.7489054 9.50992336,13.8522113 C9.54246783,13.73532 9.56882836,13.6159229 9.58866085,13.4944157 C9.82070382,12.0727545 9.53404507,10.7206416 8.74219984,9.48517684 C8.09047322,8.46833007 7.27669176,7.64749615 6.4026382,7.19748442 C6.00979549,6.99345355 5.52133974,6.82982718 5.05775008,6.74177496 L4.92020631,6.71733333 L5.00095091,6.60457359 C6.58303562,4.41645118 8.71504569,2.72899341 10.5486205,2.66835465 L10.6501733,2.66666667 Z M11.6878279,3.80093366 C10.8088244,4.37934161 10.6942935,5.78610686 11.4970413,6.94714874 C12.2997892,8.10819062 13.6796929,8.53157776 14.5586965,7.95316981 C15.4377,7.37476186 15.5522309,5.96799661 14.7494831,4.80695473 C13.9467352,3.64591285 12.5668315,3.22252571 11.6878279,3.80093366 Z"
              id="形状结合" fill="#000000"></path>
        <path d="M19,20.6666667 C19.9885281,21.1313487 21.1060489,21.4367303 22.3837346,21.5429673 L22.5981706,21.5588227 L23.2270989,21.5996296 C23.5732271,22.034714 24.0267514,22.3833949 24.55269,22.6056237 L24.6664868,22.6512941 L24.6666667,28.2341222 L24.6651473,28.3084467 C24.6288275,29.1952429 23.9456276,29.918929 23.0738392,29.9936393 L22.9986633,29.9984424 L22.9246936,30 L20.7429007,30 L20.668931,29.9984424 C19.7867388,29.961213 19.0800112,29.2611258 19.0070977,28.384047 L19.0024108,28.3084467 L19.0008914,28.2341222 L19,20.6666667 Z M13.1691856,13.9836823 L13.1685494,21.4982782 L13.1670476,21.5720872 C13.1301231,22.4778935 12.4167578,23.2123335 11.5199182,23.2503609 L11.4468092,23.2519078 L9.29040257,23.2519078 L9.21729356,23.2503609 C8.3204553,23.2123335 7.60712273,22.4778938 7.57019999,21.5720872 L7.56869825,21.4982782 L7.56887607,15.954173 C8.13435339,15.7380154 8.62112839,15.3756016 8.98717641,14.9152718 L9.79192494,14.8562002 L9.98865144,14.8384585 C11.1897962,14.7196951 12.2401088,14.4227253 13.1691856,13.9836823 Z"
              id="形状" fill="#000000" opacity="0.6"></path>
        <path d="M30.00629,18.4285112 C30.4694037,18.7217446 30.4229851,19.552076 29.9786893,20.3312792 C29.5343934,21.1104823 28.966755,21.5203416 28.3973523,21.2502554 C27.8279497,20.9801691 27.9192347,20.1021003 28.3635306,19.3228972 C28.8078264,18.543694 29.5431764,18.1352778 30.00629,18.4285112 Z M20.2687676,10.5905486 C21.1477712,11.1689565 21.262302,12.5757218 20.4595542,13.7367637 C19.6568064,14.8978055 18.2769026,15.3211927 17.3978991,14.7427847 C16.5188955,14.1643768 16.4043646,12.7576115 17.2071125,11.5965697 C18.0098603,10.4355278 19.389764,10.0121406 20.2687676,10.5905486 Z M3.63646943,12.6758431 C4.08076531,13.4550463 4.1720503,14.3331151 3.60264766,14.6032014 C3.03324501,14.8732876 2.46560661,14.4634283 2.02131073,13.6842251 C1.57701485,12.905022 1.53059632,12.0746906 1.99370996,11.7814572 C2.45682359,11.4882238 3.19217355,11.89664 3.63646943,12.6758431 Z M14.7494831,4.80695473 C15.5522309,5.96799661 15.4377,7.37476186 14.5586965,7.95316981 C13.6796929,8.53157776 12.2997892,8.10819062 11.4970413,6.94714874 C10.6942935,5.78610686 10.8088244,4.37934161 11.6878279,3.80093366 C12.5668315,3.22252571 13.9467352,3.64591285 14.7494831,4.80695473 Z"
              id="形状" fill="#000000" opacity="0.4"></path>
    </g>
</svg>