<?xml version="1.0" encoding="UTF-8"?>
<svg width="32px" height="32px" viewBox="0 0 32 32" version="1.1" xmlns="http://www.w3.org/2000/svg"
     xmlns:xlink="http://www.w3.org/1999/xlink">
    <title>ic_phone</title>
    <defs>
        <path d="M19.5388963,0.666666667 C21.3219337,0.666666667 21.9685062,0.852317889 22.6203581,1.20093207 C23.2722099,1.54954626 23.7837871,2.06112341 24.1324013,2.71297526 L24.186088,2.81602182 C24.5000434,3.43603547 24.6666667,4.10524366 24.6666667,5.79443707 L24.6666667,10.3333333 C25.0348565,10.3333333 25.3333333,10.6318102 25.3333333,11 L25.3333333,13.6666667 C25.3333333,14.0348565 25.0348565,14.3333333 24.6666667,14.3333333 L24.6666667,26.2055629 L24.6651272,26.4778173 C24.646673,28.0566753 24.4626673,28.6694809 24.1324013,29.2870247 C23.7837871,29.9388766 23.2722099,30.4504537 22.6203581,30.7990679 L22.5173115,30.8527547 C21.8972979,31.1667101 21.2280897,31.3333333 19.5388963,31.3333333 L12.4611037,31.3333333 L12.1888493,31.3317938 C10.6099914,31.3133397 9.99718579,31.129334 9.37964193,30.7990679 C8.72779007,30.4504537 8.21621293,29.9388766 7.86759874,29.2870247 L7.81391197,29.1839782 C7.49995659,28.5639645 7.33333333,27.8947563 7.33333333,26.2055629 L7.33333333,5.79443707 C7.33333333,4.01139959 7.51898456,3.36482711 7.86759874,2.71297526 C8.21621293,2.06112341 8.72779007,1.54954626 9.37964193,1.20093207 L9.48268849,1.1472453 C10.1027021,0.833289924 10.7719103,0.666666667 12.4611037,0.666666667 L19.5388963,0.666666667 Z M19.6567227,2.66666667 L12.4611037,2.66666667 L12.1222204,2.66864502 C11.0640391,2.68199523 10.6968898,2.76451428 10.3228396,2.96455847 C10.0195247,3.12677306 9.79343972,3.35285807 9.63122514,3.65617298 C9.41784466,4.05515977 9.33818169,4.44629495 9.33354957,5.67661059 L9.33354957,26.3233894 L9.33539878,26.5512636 C9.34901736,27.6042068 9.43161115,27.9705813 9.63122514,28.343827 C9.79343972,28.6471419 10.0195247,28.8732269 10.3228396,29.0354415 C10.6968898,29.2354857 11.0640391,29.3180048 12.1222204,29.331355 L12.4611037,29.3333333 L19.5388963,29.3333333 C20.8626001,29.3333333 21.2657052,29.2554901 21.6771604,29.0354415 C21.9804753,28.8732269 22.2065603,28.6471419 22.3687749,28.343827 C22.5688191,27.9697769 22.6513381,27.6026276 22.6646883,26.5444462 L22.6666667,26.2055629 L22.6666667,5.79443707 C22.6666667,4.47073323 22.5888235,4.06762811 22.3687749,3.65617298 C22.2065603,3.35285807 21.9804753,3.12677306 21.6771604,2.96455847 C21.2781736,2.751178 20.8870384,2.67151502 19.6567227,2.66666667 Z"
              id="path-1"></path>
        <path d="M11.8061712,4 L20.1938288,4 C20.5900594,4 20.7337421,4.04125583 20.8785981,4.11872565 C21.0234541,4.19619547 21.1371379,4.30987928 21.2146077,4.45473524 C21.2920775,4.59959121 21.3333333,4.74327398 21.3333333,5.13950453 L21.3333333,26.8604955 C21.3333333,27.256726 21.2920775,27.4004088 21.2146077,27.5452648 C21.1371379,27.6901207 21.0234541,27.8038045 20.8785981,27.8812744 C20.7337421,27.9587442 20.5900594,28 20.1938288,28 L11.8061712,28 C11.4099406,28 11.2662579,27.9587442 11.1214019,27.8812744 C10.9765459,27.8038045 10.8628621,27.6901207 10.7853923,27.5452648 C10.7079225,27.4004088 10.6666667,27.256726 10.6666667,26.8604955 L10.6666667,5.13950453 C10.6666667,4.74327398 10.7079225,4.59959121 10.7853923,4.45473524 C10.8628621,4.30987928 10.9765459,4.19619547 11.1214019,4.11872565 C11.2662579,4.04125583 11.4099406,4 11.8061712,4 Z"
              id="path-3"></path>
    </defs>
    <g id="ic_phone" stroke="none" stroke-width="1" fill="none" fill-rule="evenodd">
        <mask id="mask-2" fill="white">
            <use xlink:href="#path-1"></use>
        </mask>
        <use id="形状结合" fill-opacity="0.9" fill="#000000" xlink:href="#path-1"></use>
        <mask id="mask-4" fill="white">
            <use xlink:href="#path-3"></use>
        </mask>
        <use id="矩形" fill-opacity="0.9" fill="#000000" opacity="0.6" xlink:href="#path-3"></use>
    </g>
</svg>