<?xml version="1.0" encoding="UTF-8"?>
<svg width="32px" height="32px" viewBox="0 0 32 32" version="1.1" xmlns="http://www.w3.org/2000/svg">
    <title>ic_sport</title>
    <g id="ic_sport" stroke="none" stroke-width="1" fill="none" fill-rule="evenodd" fill-opacity="0.9">
        <path d="M19.2520519,0.949503448 C20.6611295,0.949503448 21.8459828,1.99494714 22.0291672,3.38315619 L22.0608191,3.66664331 C22.2563473,5.32744093 22.8085457,7.12555974 23.7233346,9.05931371 L23.7794698,9.12204389 C23.8621201,9.2154571 23.9431139,9.31036994 24.0224052,9.40673641 L24.028697,9.40260073 C24.3426616,9.21337418 24.7544814,9.31635212 24.9433522,9.63062597 L25.6333143,10.7782174 C25.8148784,11.0803332 25.7273741,11.4723293 25.4408439,11.6699739 C26.0461663,12.9877658 26.3838299,14.4544501 26.3838299,16 C26.3838299,17.5875531 26.0275636,19.0918957 25.3906201,20.4374388 L25.4064205,20.4460601 C25.7050027,20.6258033 25.8122482,21.0061997 25.6602932,21.3132405 L25.6341364,21.3610711 L24.943293,22.5103949 C24.7544222,22.8246687 24.3425792,22.9273142 24.0283054,22.7384434 C23.9998454,22.7213108 23.9731238,22.7023552 23.9481993,22.6818139 C23.8750456,22.7693657 23.8000642,22.8555552 23.7237024,22.9404785 C22.8086089,24.8740844 22.2563585,26.672314 22.0608191,28.3332066 L22.0391244,28.531279 C21.8942508,29.9617962 20.6898862,31.0503465 19.2520519,31.0503465 L12.7112362,31.0503465 C11.2513194,31.0503465 10.0361659,29.9291313 9.91895468,28.4739273 C9.76133325,26.51694 9.2395871,24.7029089 8.35206803,23.0232239 C6.65311839,21.1746905 5.61617011,18.7084414 5.61617011,16 C5.61617011,13.291722 6.65299329,10.8256071 8.35136082,8.97693399 C9.2394894,7.29728069 9.76131849,5.48309319 9.91895468,3.52592265 C10.0338676,2.09925203 11.2040885,0.993601078 12.6256475,0.950790726 L12.7112362,0.949503448 L19.2520519,0.949503448 Z M16,6.94950345 C11.0015488,6.94950345 6.94950345,11.0015488 6.94950345,16 C6.94950345,20.9984512 11.0015488,25.0504966 16,25.0504966 C20.9984512,25.0504966 25.0504966,20.9984512 25.0504966,16 C25.0504966,11.0015488 20.9984512,6.94950345 16,6.94950345 Z"
              id="形状" fill="#000000"></path>
        <path d="M16,8 C11.581722,8 8,11.581722 8,16 C8,20.418278 11.581722,24 16,24 C20.418278,24 24,20.418278 24,16 C24,11.581722 20.418278,8 16,8 Z"
              id="路径" fill="#000000" opacity="0.6"></path>
    </g>
</svg>