<?xml version="1.0" encoding="UTF-8"?>
<svg width="32px" height="32px" viewBox="0 0 32 32" version="1.1" xmlns="http://www.w3.org/2000/svg">
    <title>ic_work</title>
    <g id="ic_work" stroke="none" stroke-width="1" fill="none" fill-rule="evenodd" fill-opacity="0.9">
        <path d="M26.3333333,4 L5.66666667,4 C3.27343275,4 1.33333333,5.94009942 1.33333333,8.33333333 L1.33333333,21 C1.33333333,23.3932339 3.27343275,25.3333333 5.66666667,25.3333333 L26.3333333,25.3333333 C28.7265672,25.3333333 30.6666667,23.3932339 30.6666667,21 L30.6666667,8.33333333 C30.6666667,5.94009942 28.7265672,4 26.3333333,4 Z M5.66666667,6 L26.3333333,6 C27.6219977,6 28.6666667,7.04466892 28.6666667,8.33333333 L28.6666667,21 C28.6666667,22.2886644 27.6219977,23.3333333 26.3333333,23.3333333 L5.66666667,23.3333333 C4.37800225,23.3333333 3.33333333,22.2886644 3.33333333,21 L3.33333333,8.33333333 C3.33333333,7.04466892 4.37800225,6 5.66666667,6 Z M30.9996995,26 C31.5519843,26 31.9996995,26.4477153 31.9996995,27 C31.9996995,27.5325603 31.5833929,27.967887 31.0584571,27.9983024 L30.9996995,28 L1,28 C0.44771525,28 -2.23643326e-12,27.5522847 -2.23643326e-12,27 C-2.23643326e-12,26.4674397 0.416306655,26.032113 0.941242404,26.0016976 L1,26 L30.9996995,26 Z"
              id="形状结合" fill="#000000"></path>
        <path d="M6,7.33333333 L26,7.33333333 C26.7363797,7.33333333 27.3333333,7.930287 27.3333333,8.66666667 L27.3333333,20.6666667 C27.3333333,21.4030463 26.7363797,22 26,22 L6,22 C5.26362033,22 4.66666667,21.4030463 4.66666667,20.6666667 L4.66666667,8.66666667 C4.66666667,7.930287 5.26362033,7.33333333 6,7.33333333 Z"
              id="矩形" fill="#000000" opacity="0.6"></path>
    </g>
</svg>